<svg xmlns="http://www.w3.org/2000/svg" width="584" height="172" viewBox="0 0 584 172" version="1.1"><path d="M 98.056 39.090 C 90.271 40.617, 79.917 46.289, 73.386 52.606 C 53.117 72.208, 53.117 103.792, 73.386 123.394 C 93.262 142.617, 123.574 142.526, 143.299 123.186 C 153.451 113.232, 158 102.345, 158 88 C 158 73.655, 153.451 62.768, 143.299 52.814 C 131.214 40.965, 114.442 35.877, 98.056 39.090 M 70.310 59.794 C 58.888 75.243, 57.915 94.212, 67.629 112.060 C 71.699 119.537, 71.826 119.570, 79.882 115.198 L 86.991 111.341 84.666 109.156 C 81.464 106.148, 78.193 99.291, 77.027 93.143 C 75.412 84.624, 78.537 73.443, 84.263 67.254 C 85.406 66.019, 86.152 64.847, 85.921 64.651 C 85.689 64.455, 82.543 62.659, 78.928 60.660 L 72.356 57.027 70.310 59.794 M 97.041 60.200 C 89.863 62.956, 82.847 70.122, 80.076 77.526 C 69.215 106.555, 105.666 131.294, 128.218 110.199 C 136.495 102.458, 139.956 92.610, 137.866 82.750 C 136.287 75.299, 133.913 71.127, 128.218 65.801 C 119.983 58.098, 108.084 55.960, 97.041 60.200 M 201.886 68.697 C 191.807 90.976, 183 111.179, 183 112.024 C 183 112.561, 185.481 113, 188.513 113 L 194.026 113 196.212 108.500 L 198.399 104 210.028 104 L 221.658 104 223.579 108.250 C 225.484 112.466, 225.547 112.502, 231.250 112.800 C 234.453 112.967, 237 112.676, 237 112.143 C 237 111.617, 232.112 100.232, 226.139 86.843 L 215.278 62.500 210.121 62.197 L 204.964 61.894 201.886 68.697 M 361.507 63.122 C 361.207 63.902, 361.084 75.331, 361.231 88.520 L 361.500 112.500 367 112.500 L 372.500 112.500 372.790 104.250 L 373.081 96 375.868 96 C 378.254 96, 379.435 97.187, 384.078 104.250 L 389.500 112.500 395.250 112.800 C 398.413 112.965, 401 112.809, 401 112.453 C 401 112.098, 398.525 108.010, 395.500 103.369 C 392.475 98.728, 390 94.693, 390 94.401 C 390 94.109, 391.288 92.787, 392.863 91.462 C 400.883 84.713, 398.677 69.937, 388.905 64.951 C 383.490 62.189, 362.405 60.781, 361.507 63.122 M 493 87.500 L 493 113 498.500 113 L 504 113 504 87.500 L 504 62 498.500 62 L 493 62 493 87.500 M 290 70.930 C 290 74.245, 289.647 74.911, 287.750 75.180 C 285.830 75.453, 285.455 76.197, 285.195 80.250 C 284.906 84.757, 285.021 85, 287.445 85 C 289.946 85, 290.001 85.153, 290.044 92.250 C 290.101 101.859, 291.329 107.773, 293.773 110.218 C 295.949 112.393, 303.221 113.663, 307.440 112.604 C 309.704 112.036, 310 111.450, 310 107.541 C 310 103.155, 309.971 103.118, 306.250 102.810 L 302.500 102.500 302.211 93.750 L 301.922 85 306.016 85 L 310.110 85 309.805 80.250 C 309.503 75.546, 309.464 75.497, 305.750 75.190 C 302.104 74.888, 302 74.770, 302 70.940 L 302 67 296 67 L 290 67 290 70.930 M 95.627 68.707 C 95.282 69.051, 95 78.033, 95 88.667 C 95 104.514, 95.251 108, 96.391 108 C 98.177 108, 132 89.080, 132 88.081 C 132 87.668, 125.362 83.706, 117.250 79.278 C 97.898 68.715, 96.367 67.967, 95.627 68.707 M 98 87.914 C 98 96.761, 98.240 104, 98.534 104 C 100.029 104, 126.842 88.553, 126.449 87.918 C 126.197 87.510, 122.505 85.279, 118.245 82.961 C 113.985 80.642, 107.688 77.189, 104.250 75.287 L 98 71.828 98 87.914 M 373 79.500 L 373 86 377.845 86 C 383.545 86, 386 83.961, 386 79.228 C 386 75.203, 382.915 73, 377.277 73 L 373 73 373 79.500 M 242.369 76.480 C 242.035 77.352, 241.955 83.564, 242.193 90.283 C 242.512 99.294, 243.081 103.365, 244.361 105.794 C 248.694 114.017, 260.613 115.564, 266.228 108.633 C 267.948 106.509, 267.956 106.514, 267.978 109.750 L 268 113 273.500 113 L 279 113 279 94 L 279 75 273.500 75 L 268 75 268 86.077 C 268 96.987, 267.956 97.198, 265.077 100.077 C 261.924 103.230, 257.087 104.015, 255.155 101.686 C 254.535 100.939, 253.943 95.011, 253.782 87.936 L 253.500 75.500 248.239 75.197 C 244.166 74.963, 242.840 75.253, 242.369 76.480 M 324.967 77.750 C 320.830 79.860, 319.042 81.526, 317.287 84.907 C 312.745 93.659, 315.292 104.518, 323.098 109.684 C 326.768 112.112, 328.338 112.500, 334.500 112.500 C 340.622 112.500, 342.242 112.106, 345.803 109.749 C 357.392 102.080, 356.640 84.515, 344.436 77.773 C 337.831 74.125, 332.088 74.118, 324.967 77.750 M 417.459 76.824 C 402.984 83.598, 402.345 104.241, 416.404 110.850 C 422.481 113.707, 431.582 113.764, 437.040 110.980 C 439.218 109.868, 441 108.603, 441 108.167 C 441 107.731, 439.732 106.160, 438.183 104.675 C 435.626 102.225, 435.066 102.081, 432.118 103.109 C 426.756 104.978, 418 102.334, 418 98.845 C 418 98.380, 423.850 98, 431 98 L 444 98 443.978 93.750 C 443.948 87.955, 440.964 81.837, 436.511 78.441 C 431.651 74.734, 423.418 74.035, 417.459 76.824 M 458.907 77.327 C 456.483 78.606, 453.188 81.517, 451.583 83.794 C 449.172 87.217, 448.668 88.938, 448.672 93.718 C 448.679 102.150, 452.021 107.503, 459.700 111.383 C 465.843 114.487, 479.274 112.995, 482.732 108.824 C 483.743 107.605, 483.458 106.855, 481.138 104.632 C 478.442 102.050, 478.105 101.980, 473.847 103.119 C 468.569 104.530, 464.782 103.782, 461.725 100.725 L 459.500 98.500 472.750 98.221 L 486 97.942 486 93.128 C 486 79.009, 471.614 70.619, 458.907 77.327 M 209 78.411 C 209 78.638, 207.442 82.463, 205.538 86.911 L 202.076 95 209.933 95 L 217.790 95 214.245 86.500 C 212.295 81.825, 210.318 78, 209.850 78 C 209.383 78, 209 78.185, 209 78.411 M 328.455 87.455 C 325.290 90.619, 325.113 96.603, 328.073 100.365 C 329.745 102.491, 330.986 103, 334.500 103 C 338.014 103, 339.255 102.491, 340.927 100.365 C 345.826 94.137, 342.004 85, 334.500 85 C 332.021 85, 330.149 85.760, 328.455 87.455 M 420 87.500 L 417.651 90 425.326 90 C 429.547 90, 433 89.620, 433 89.155 C 433 87.253, 429.121 85, 425.846 85 C 423.408 85, 421.637 85.758, 420 87.500 M 462 87.500 L 459.651 90 467.794 90 C 474.687 90, 475.847 89.766, 475.351 88.472 C 473.754 84.311, 465.557 83.714, 462 87.500" stroke="none" fill="#273f6f" fill-rule="evenodd"/><path d="M -0 86.002 L -0 172.003 292.250 171.752 L 584.500 171.500 584.756 85.750 L 585.011 -0 292.506 -0 L 0 0 -0 86.002 M 0.478 86.500 C 0.478 133.800, 0.600 153.004, 0.750 129.175 C 0.899 105.346, 0.899 66.646, 0.750 43.175 C 0.600 19.704, 0.478 39.200, 0.478 86.500 M 98.056 39.090 C 90.271 40.617, 79.917 46.289, 73.386 52.606 C 53.117 72.208, 53.117 103.792, 73.386 123.394 C 93.262 142.617, 123.574 142.526, 143.299 123.186 C 153.451 113.232, 158 102.345, 158 88 C 158 73.655, 153.451 62.768, 143.299 52.814 C 131.214 40.965, 114.442 35.877, 98.056 39.090 M 70.310 59.794 C 58.888 75.243, 57.915 94.212, 67.629 112.060 C 71.699 119.537, 71.826 119.570, 79.882 115.198 L 86.991 111.341 84.666 109.156 C 81.464 106.148, 78.193 99.291, 77.027 93.143 C 75.412 84.624, 78.537 73.443, 84.263 67.254 C 85.406 66.019, 86.152 64.847, 85.921 64.651 C 85.689 64.455, 82.543 62.659, 78.928 60.660 L 72.356 57.027 70.310 59.794 M 97.041 60.200 C 89.863 62.956, 82.847 70.122, 80.076 77.526 C 69.215 106.555, 105.666 131.294, 128.218 110.199 C 136.495 102.458, 139.956 92.610, 137.866 82.750 C 136.287 75.299, 133.913 71.127, 128.218 65.801 C 119.983 58.098, 108.084 55.960, 97.041 60.200 M 201.886 68.697 C 191.807 90.976, 183 111.179, 183 112.024 C 183 112.561, 185.481 113, 188.513 113 L 194.026 113 196.212 108.500 L 198.399 104 210.028 104 L 221.658 104 223.579 108.250 C 225.484 112.466, 225.547 112.502, 231.250 112.800 C 234.453 112.967, 237 112.676, 237 112.143 C 237 111.617, 232.112 100.232, 226.139 86.843 L 215.278 62.500 210.121 62.197 L 204.964 61.894 201.886 68.697 M 361.507 63.122 C 361.207 63.902, 361.084 75.331, 361.231 88.520 L 361.500 112.500 367 112.500 L 372.500 112.500 372.790 104.250 L 373.081 96 375.868 96 C 378.254 96, 379.435 97.187, 384.078 104.250 L 389.500 112.500 395.250 112.800 C 398.413 112.965, 401 112.809, 401 112.453 C 401 112.098, 398.525 108.010, 395.500 103.369 C 392.475 98.728, 390 94.693, 390 94.401 C 390 94.109, 391.288 92.787, 392.863 91.462 C 400.883 84.713, 398.677 69.937, 388.905 64.951 C 383.490 62.189, 362.405 60.781, 361.507 63.122 M 493 87.500 L 493 113 498.500 113 L 504 113 504 87.500 L 504 62 498.500 62 L 493 62 493 87.500 M 290 70.930 C 290 74.245, 289.647 74.911, 287.750 75.180 C 285.830 75.453, 285.455 76.197, 285.195 80.250 C 284.906 84.757, 285.021 85, 287.445 85 C 289.946 85, 290.001 85.153, 290.044 92.250 C 290.101 101.859, 291.329 107.773, 293.773 110.218 C 295.949 112.393, 303.221 113.663, 307.440 112.604 C 309.704 112.036, 310 111.450, 310 107.541 C 310 103.155, 309.971 103.118, 306.250 102.810 L 302.500 102.500 302.211 93.750 L 301.922 85 306.016 85 L 310.110 85 309.805 80.250 C 309.503 75.546, 309.464 75.497, 305.750 75.190 C 302.104 74.888, 302 74.770, 302 70.940 L 302 67 296 67 L 290 67 290 70.930 M 95.627 68.707 C 95.282 69.051, 95 78.033, 95 88.667 C 95 104.514, 95.251 108, 96.391 108 C 98.177 108, 132 89.080, 132 88.081 C 132 87.668, 125.362 83.706, 117.250 79.278 C 97.898 68.715, 96.367 67.967, 95.627 68.707 M 98 87.914 C 98 96.761, 98.240 104, 98.534 104 C 100.029 104, 126.842 88.553, 126.449 87.918 C 126.197 87.510, 122.505 85.279, 118.245 82.961 C 113.985 80.642, 107.688 77.189, 104.250 75.287 L 98 71.828 98 87.914 M 373 79.500 L 373 86 377.845 86 C 383.545 86, 386 83.961, 386 79.228 C 386 75.203, 382.915 73, 377.277 73 L 373 73 373 79.500 M 242.369 76.480 C 242.035 77.352, 241.955 83.564, 242.193 90.283 C 242.512 99.294, 243.081 103.365, 244.361 105.794 C 248.694 114.017, 260.613 115.564, 266.228 108.633 C 267.948 106.509, 267.956 106.514, 267.978 109.750 L 268 113 273.500 113 L 279 113 279 94 L 279 75 273.500 75 L 268 75 268 86.077 C 268 96.987, 267.956 97.198, 265.077 100.077 C 261.924 103.230, 257.087 104.015, 255.155 101.686 C 254.535 100.939, 253.943 95.011, 253.782 87.936 L 253.500 75.500 248.239 75.197 C 244.166 74.963, 242.840 75.253, 242.369 76.480 M 324.967 77.750 C 320.830 79.860, 319.042 81.526, 317.287 84.907 C 312.745 93.659, 315.292 104.518, 323.098 109.684 C 326.768 112.112, 328.338 112.500, 334.500 112.500 C 340.622 112.500, 342.242 112.106, 345.803 109.749 C 357.392 102.080, 356.640 84.515, 344.436 77.773 C 337.831 74.125, 332.088 74.118, 324.967 77.750 M 417.459 76.824 C 402.984 83.598, 402.345 104.241, 416.404 110.850 C 422.481 113.707, 431.582 113.764, 437.040 110.980 C 439.218 109.868, 441 108.603, 441 108.167 C 441 107.731, 439.732 106.160, 438.183 104.675 C 435.626 102.225, 435.066 102.081, 432.118 103.109 C 426.756 104.978, 418 102.334, 418 98.845 C 418 98.380, 423.850 98, 431 98 L 444 98 443.978 93.750 C 443.948 87.955, 440.964 81.837, 436.511 78.441 C 431.651 74.734, 423.418 74.035, 417.459 76.824 M 458.907 77.327 C 456.483 78.606, 453.188 81.517, 451.583 83.794 C 449.172 87.217, 448.668 88.938, 448.672 93.718 C 448.679 102.150, 452.021 107.503, 459.700 111.383 C 465.843 114.487, 479.274 112.995, 482.732 108.824 C 483.743 107.605, 483.458 106.855, 481.138 104.632 C 478.442 102.050, 478.105 101.980, 473.847 103.119 C 468.569 104.530, 464.782 103.782, 461.725 100.725 L 459.500 98.500 472.750 98.221 L 486 97.942 486 93.128 C 486 79.009, 471.614 70.619, 458.907 77.327 M 209 78.411 C 209 78.638, 207.442 82.463, 205.538 86.911 L 202.076 95 209.933 95 L 217.790 95 214.245 86.500 C 212.295 81.825, 210.318 78, 209.850 78 C 209.383 78, 209 78.185, 209 78.411 M 328.455 87.455 C 325.290 90.619, 325.113 96.603, 328.073 100.365 C 329.745 102.491, 330.986 103, 334.500 103 C 338.014 103, 339.255 102.491, 340.927 100.365 C 345.826 94.137, 342.004 85, 334.500 85 C 332.021 85, 330.149 85.760, 328.455 87.455 M 420 87.500 L 417.651 90 425.326 90 C 429.547 90, 433 89.620, 433 89.155 C 433 87.253, 429.121 85, 425.846 85 C 423.408 85, 421.637 85.758, 420 87.500 M 462 87.500 L 459.651 90 467.794 90 C 474.687 90, 475.847 89.766, 475.351 88.472 C 473.754 84.311, 465.557 83.714, 462 87.500" stroke="none" fill="#d7ecfb" fill-rule="evenodd"/></svg>